<?xml version="1.0" encoding="UTF-8" standalone="no"?><!-- Generator: Gravit.io --><svg xmlns="http://www.w3.org/2000/svg" xmlns:xlink="http://www.w3.org/1999/xlink" style="isolation:isolate" viewBox="0 0 150 150" width="150pt" height="150pt"><defs><clipPath id="_clipPath_Zle8wu1BVjxaaDEpwZzwHymV5HI7V38F"><rect width="150" height="150"/></clipPath></defs><g clip-path="url(#_clipPath_Zle8wu1BVjxaaDEpwZzwHymV5HI7V38F)"><g><g><path d=" M 20.035 55.14 C 7.354 77.146 15.415 110.541 29.439 130.79 C 36.439 140.913 43.525 150 53.232 150 C 53.415 150 53.599 149.997 53.786 149.989 C 58.347 149.807 61.642 148.403 64.829 147.046 C 68.406 145.522 72.106 143.945 77.909 143.945 C 83.43 143.945 86.954 145.47 90.361 146.945 C 93.719 148.398 97.178 149.901 102.289 149.805 C 113.222 149.601 119.935 139.796 125.858 131.145 C 132.039 122.113 135.139 113.344 136.185 109.993 L 136.227 109.859 C 136.427 109.264 136.145 108.614 135.574 108.352 C 135.559 108.344 135.5 108.32 135.484 108.313 C 133.559 107.526 116.669 100.033 116.492 79.612 C 116.327 63.02 129.162 54.234 131.736 52.642 L 131.856 52.567 C 132.135 52.387 132.329 52.103 132.395 51.777 C 132.461 51.452 132.392 51.114 132.205 50.84 C 123.346 37.875 109.767 35.921 104.3 35.686 C 103.507 35.607 102.688 35.567 101.866 35.567 C 95.445 35.567 89.294 37.992 84.352 39.941 C 80.941 41.286 77.995 42.448 75.963 42.448 C 73.679 42.448 70.716 41.272 67.285 39.91 C 62.696 38.089 57.496 36.026 51.99 36.026 C 51.859 36.026 51.729 36.027 51.602 36.029 C 38.8 36.218 26.704 43.542 20.035 55.14 Z " fill="rgb(0,0,0)"/><path d=" M 104.312 0.001 C 96.56 0.317 87.26 5.089 81.702 11.599 C 76.978 17.071 72.363 26.195 73.579 35.392 C 73.655 35.968 74.123 36.412 74.702 36.456 C 75.226 36.497 75.76 36.518 76.292 36.518 C 83.872 36.518 92.049 32.325 97.634 25.572 C 103.511 18.442 106.483 9.292 105.584 1.095 C 105.513 0.453 104.948 -0.024 104.312 0.001 Z " fill="rgb(0,0,0)"/></g></g></g></svg>