<?xml version="1.0" encoding="UTF-8" standalone="no"?><!-- Generator: Gravit.io --><svg xmlns="http://www.w3.org/2000/svg" xmlns:xlink="http://www.w3.org/1999/xlink" style="isolation:isolate" viewBox="0 0 150 150" width="150pt" height="150pt"><defs><clipPath id="_clipPath_L97Yh02i1vlF9VH2iPtJwOaII2t9NbK3"><rect width="150" height="150"/></clipPath></defs><g clip-path="url(#_clipPath_L97Yh02i1vlF9VH2iPtJwOaII2t9NbK3)"><g><g><path d=" M 135.079 120.438 C 130.68 118.636 128.799 116.245 128.981 112.678 C 129.168 108.515 126.806 105.465 125.684 104.26 C 126.362 101.671 128.342 92.715 125.686 84.936 C 122.832 76.61 114.117 63.894 105.125 51.393 C 101.443 46.26 101.269 40.68 101.068 34.218 C 100.875 28.056 100.658 21.07 97.221 13.304 C 93.484 4.849 85.986 0 76.648 0 C 71.094 0 65.392 1.736 61.004 4.763 C 52.018 10.964 53.206 24.484 53.992 33.431 C 54.1 34.656 54.201 35.813 54.26 36.801 C 54.783 45.563 54.307 50.181 53.685 51.585 C 53.282 52.502 51.299 55.112 49.2 57.876 C 47.03 60.735 44.569 63.975 42.553 66.994 C 40.146 70.627 38.203 76.18 36.325 81.55 C 34.95 85.479 33.652 89.191 32.388 91.409 C 29.992 95.676 30.588 99.655 31.086 101.494 C 30.179 102.124 28.869 103.364 27.763 105.702 C 26.426 108.554 23.714 110.087 18.074 111.172 C 15.482 111.702 13.695 112.792 12.76 114.411 C 11.401 116.767 12.141 119.728 12.817 121.751 C 13.815 124.726 13.193 126.608 12.062 130.026 C 11.801 130.815 11.506 131.708 11.206 132.693 C 10.735 134.248 10.905 135.661 11.711 136.894 C 13.841 140.151 20.056 141.299 26.455 142.054 C 30.275 142.508 34.456 144.036 38.501 145.514 C 42.463 146.962 46.56 148.46 50.285 148.914 C 50.851 148.985 51.411 149.021 51.952 149.021 C 57.575 149.021 60.116 145.29 60.921 143.757 C 62.941 143.345 69.908 142.025 77.088 141.848 C 84.256 141.643 91.192 143.059 93.157 143.499 C 93.775 144.681 95.403 147.382 97.999 148.773 C 99.426 149.553 101.411 150 103.445 150 C 103.445 150 103.445 150 103.445 150 C 105.617 150 109.749 149.487 113.019 146.046 C 116.28 142.59 124.429 138.177 130.38 134.956 C 131.708 134.237 132.95 133.564 134.04 132.956 C 137.383 131.103 139.207 128.455 139.044 125.692 C 138.908 123.397 137.389 121.383 135.079 120.438 Z  M 61.077 119.772 C 60.661 116.841 56.89 113.934 52.523 110.568 C 48.953 107.815 44.906 104.696 43.791 102.054 C 41.487 96.604 43.303 87.02 46.47 82.085 C 48.035 79.615 49.313 75.868 50.549 72.244 C 51.884 68.331 53.265 64.286 54.808 62.515 C 57.253 59.75 59.512 54.37 59.913 50.13 C 62.202 52.315 65.753 55.089 69.034 55.089 C 69.539 55.089 70.03 55.023 70.498 54.891 C 72.743 54.242 76.045 52.335 79.237 50.49 C 81.99 48.9 85.384 46.939 86.662 46.76 C 88.852 49.905 101.577 78.066 102.877 87.11 C 103.906 94.266 102.819 100.181 102.273 102.498 C 101.833 102.438 101.309 102.389 100.758 102.389 C 97.214 102.389 96.275 104.324 96.031 105.479 C 95.403 108.481 95.336 118.078 95.329 120.235 C 94.048 121.863 87.566 129.532 78.261 130.91 C 74.47 131.461 70.931 131.74 67.741 131.74 C 65.014 131.74 63.274 131.53 62.552 131.42 L 57.876 126.07 C 59.72 125.159 61.563 123.238 61.077 119.772 Z  M 67.011 31.549 C 66.864 31.612 66.721 31.679 66.58 31.751 C 66.565 31.434 66.533 31.113 66.482 30.791 C 65.971 27.852 64.023 25.72 61.85 25.72 C 61.689 25.72 61.527 25.732 61.349 25.759 C 60.056 25.974 59.042 26.946 58.487 28.323 C 58.974 25.301 60.686 23.064 62.717 23.064 C 65.102 23.064 67.117 26.278 67.117 30.083 C 67.117 30.562 67.082 31.039 67.011 31.549 Z  M 85.545 33.815 C 85.763 33.119 85.881 32.367 85.881 31.586 C 85.881 28.136 83.693 25.434 80.899 25.434 C 78.168 25.434 75.947 28.193 75.947 31.586 C 75.947 31.817 75.958 32.049 75.98 32.28 C 75.835 32.224 75.694 32.17 75.556 32.118 C 75.242 31.166 75.083 30.173 75.083 29.16 C 75.083 25.035 77.719 21.679 80.96 21.679 C 84.201 21.679 86.837 25.035 86.837 29.16 C 86.837 30.876 86.364 32.513 85.545 33.815 Z  M 83.155 41.843 C 83.108 42.051 83.009 42.144 81.91 42.715 C 81.356 43.004 80.665 43.364 79.801 43.89 L 79.224 44.239 C 76.903 45.646 71.47 48.941 69.995 49.134 C 68.994 49.269 68.374 48.88 66.981 47.933 C 66.666 47.719 66.332 47.492 65.975 47.264 C 63.464 45.616 61.848 43.8 61.666 43.091 C 62.484 42.458 64.514 40.874 65.553 39.936 C 67.663 37.974 69.785 36.656 70.836 36.656 C 70.891 36.656 70.942 36.66 70.994 36.67 C 72.228 36.888 75.273 38.103 77.497 38.99 C 78.525 39.401 79.412 39.755 80.037 39.979 C 82.005 40.655 83.031 41.519 83.155 41.843 Z  M 100.834 133.501 C 101.944 128.494 103.223 121.682 103.016 117.667 C 102.968 116.754 102.887 115.761 102.809 114.801 C 102.663 113.006 102.446 110.338 102.67 109.547 C 102.714 109.526 102.763 109.509 102.818 109.493 C 102.827 111.789 103.326 116.368 106.988 117.965 C 108.079 118.441 109.327 118.682 110.695 118.682 C 114.363 118.682 118.433 116.883 120.101 115.216 C 121.082 114.234 121.908 113.033 122.486 112.082 C 122.613 112.452 122.69 112.936 122.65 113.56 C 122.432 116.946 124.077 121.438 127.209 123.093 L 127.665 123.333 C 128.78 123.918 131.743 125.474 131.791 126.211 C 131.79 126.212 131.766 126.298 131.6 126.452 C 130.858 127.13 128.246 128.464 125.72 129.754 C 121.24 132.042 116.161 134.635 113.88 137.034 C 110.668 140.414 107.036 142.684 104.842 142.684 C 104.578 142.684 104.338 142.65 104.124 142.583 C 101.741 141.84 99.781 138.403 100.834 133.501 Z  M 19.631 120.727 C 19.388 119.59 19.197 118.693 19.403 117.823 C 19.552 117.179 22.733 116.488 24.091 116.194 C 26.001 115.779 27.976 115.351 29.267 114.567 C 31.014 113.509 31.959 111.558 32.794 109.837 C 33.398 108.592 34.021 107.305 34.763 106.882 C 34.805 106.858 34.869 106.829 34.991 106.829 C 36.381 106.829 39.299 109.752 40.98 112.368 C 41.406 113.027 42.196 114.349 43.11 115.879 C 45.843 120.452 49.585 126.715 51.539 128.814 C 53.3 130.701 56.151 134.329 55.45 137.441 C 54.937 139.855 52.203 141.818 51.558 142.253 C 51.324 142.306 51.035 142.333 50.694 142.333 C 46.953 142.333 39.549 139.221 35.57 137.548 L 34.982 137.301 C 32.76 136.37 29.134 135.783 25.626 135.215 C 22.836 134.763 19.015 134.145 18.381 133.586 C 17.868 133.011 18.463 131.138 18.989 129.486 C 19.367 128.299 19.757 127.071 19.971 125.786 C 20.275 123.737 19.918 122.068 19.631 120.727 Z " fill="rgb(0,0,0)"/></g></g></g></svg>