<?xml version="1.0" encoding="UTF-8" standalone="no"?><!-- Generator: Gravit.io --><svg xmlns="http://www.w3.org/2000/svg" xmlns:xlink="http://www.w3.org/1999/xlink" style="isolation:isolate" viewBox="0 0 512 408" width="512pt" height="408pt"><defs><clipPath id="_clipPath_bGnTkGtwH2z717nTHlvw6v925MDi3Eyi"><rect width="512" height="408"/></clipPath></defs><g clip-path="url(#_clipPath_bGnTkGtwH2z717nTHlvw6v925MDi3Eyi)"><g><path d=" M 512 215.591 C 512 244.756 503.606 272.398 488.589 297.141 Q 484.697 303.565 480.215 309.715 C 467.501 327.188 451.348 342.953 432.474 356.467 Q 430.742 357.704 428.985 358.916 C 428.541 359.22 428.103 359.525 427.659 359.829 Q 424.889 361.704 422.057 363.522 C 421.46 363.902 420.864 364.277 420.268 364.651 C 419.76 364.974 419.246 365.292 418.732 365.609 Q 410.481 370.71 401.666 375.259 C 401.025 375.589 400.378 375.918 399.731 376.248 C 399.173 376.527 398.614 376.813 398.05 377.092 C 397.656 377.289 397.257 377.485 396.863 377.676 C 396.204 378.006 395.537 378.329 394.871 378.646 Q 392.273 379.893 389.637 381.089 C 388.831 381.457 388.019 381.825 387.201 382.18 C 387.194 382.187 387.185 382.191 387.176 382.193 C 386.364 382.555 385.551 382.91 384.733 383.259 C 383.984 383.582 383.229 383.906 382.474 384.217 Q 379.068 385.654 375.604 386.996 C 375.128 387.186 374.646 387.37 374.163 387.554 C 373.497 387.808 372.837 388.061 372.165 388.309 C 371.308 388.626 370.458 388.943 369.602 389.254 C 368.802 389.546 368.003 389.832 367.197 390.117 L 367.026 390.174 C 366.22 390.46 365.415 390.739 364.603 391.012 Q 358.341 393.162 351.895 395.034 C 351.356 395.192 350.816 395.345 350.277 395.497 C 350.036 395.573 349.789 395.643 349.541 395.706 C 348.913 395.884 348.285 396.062 347.651 396.233 C 346.877 396.455 346.096 396.664 345.309 396.867 Q 342.026 397.743 338.711 398.542 C 337.963 398.726 337.22 398.904 336.472 399.075 C 336.458 399.083 336.443 399.088 336.427 399.088 Q 335.304 399.345 334.182 399.602 C 333.135 399.843 332.075 400.078 331.016 400.293 C 329.791 400.56 328.56 400.814 327.323 401.067 C 326.556 401.22 325.788 401.372 325.02 401.518 C 324.253 401.67 323.479 401.816 322.711 401.956 Q 316.915 403.031 311.025 403.891 C 309.566 404.1 308.106 404.303 306.635 404.5 C 305.734 404.62 304.826 404.734 303.919 404.842 C 303.126 404.937 302.327 405.032 301.534 405.121 C 300.741 405.216 299.948 405.299 299.148 405.388 L 299.142 405.388 C 299.066 405.4 298.99 405.407 298.913 405.413 C 297.613 405.553 296.306 405.68 294.999 405.807 C 294.231 405.883 293.464 405.946 292.69 406.01 C 291.998 406.073 291.3 406.13 290.602 406.181 Q 287.471 406.438 284.322 406.619 Q 283.303 406.685 282.285 406.733 C 280.839 406.815 279.392 406.879 277.939 406.936 C 277.336 406.961 276.727 406.987 276.125 407.006 C 274.501 407.063 272.87 407.101 271.24 407.132 Q 269.86 407.161 268.48 407.171 Q 266.843 407.19 265.206 407.19 C 212.415 407.19 151.738 389.108 101.758 362.824 C 89.194 356.254 77.039 348.93 65.36 340.891 C 58.597 336.216 52.215 331.407 46.289 326.484 C 2.126 289.877 -16.989 247.693 18.412 215.591 Q 25.264 209.377 33.175 202.655 Q 39.161 197.564 45.674 192.212 C 107.512 141.42 202.29 74.792 265.206 23.993 C 371.258 -61.63 512 109.774 512 215.591 Z " fill="rgb(0,102,255)"/></g></g></svg>