<?xml version="1.0" encoding="UTF-8" standalone="no"?><!-- Generator: Gravit.io --><svg xmlns="http://www.w3.org/2000/svg" xmlns:xlink="http://www.w3.org/1999/xlink" style="isolation:isolate" viewBox="0 0 512 512" width="512pt" height="512pt"><defs><clipPath id="_clipPath_VjWrWRSJ1o88FY9Aq3YhombO655SRlQ6"><rect width="512" height="512"/></clipPath></defs><g clip-path="url(#_clipPath_VjWrWRSJ1o88FY9Aq3YhombO655SRlQ6)"><g><path d=" M 256 512 C 300.934 512 287.344 383.879 287.344 383.879 C 340.977 486.727 393.473 515.598 412.281 502.504 C 424.359 494.094 419.223 476.004 407.23 460.227 C 395.242 444.453 339.891 369.723 339.891 369.723 C 438.973 454.465 483.777 421.723 485.555 406.605 C 487.336 391.484 456.644 378.781 420.41 364.16 C 381.195 348.34 362.371 310.082 362.371 310.082 C 499.316 150.528 376.996 0 256 0 C 135.008 0 12.684 150.527 149.633 310.077 C 149.633 310.077 130.805 348.339 91.59 364.159 C 55.356 378.776 24.668 391.483 26.446 406.601 C 28.223 421.722 73.032 454.464 172.11 369.722 C 172.11 369.722 116.758 444.448 104.77 460.226 C 92.782 475.999 87.645 494.093 99.723 502.503 C 118.528 515.597 171.024 486.726 224.656 383.874 C 224.656 383.878 211.066 511.999 256 511.999 L 256 512 L 256 512 Z  M 386.794 313.704 C 400.531 314.606 417.467 313.692 430.109 306.422 C 455.398 291.879 472.351 277.442 485.629 290.086 C 495.307 299.304 496.299 331.312 445.39 348.204 C 425.217 344.112 396.06 326.46 386.794 313.704 L 386.794 313.704 Z  M 66.611 348.203 C 15.701 331.312 16.693 299.304 26.371 290.086 C 39.649 277.442 56.602 291.879 81.891 306.422 C 94.533 313.692 111.469 314.606 125.206 313.704 C 115.94 326.456 86.816 344.092 66.611 348.203 L 66.611 348.203 Z  M 282.208 249.435 C 283.076 249.435 283.905 249.074 284.498 248.439 C 285.09 247.804 285.392 246.951 285.331 246.085 C 284.482 233.949 280.017 194.096 279.395 185.212 C 279.322 184.162 279.78 183.147 280.616 182.507 C 289.981 175.192 296 163.794 296 151 C 296 128.924 278.077 111 256 111 C 233.923 111 216 128.924 216 151 C 216 163.794 222.019 175.192 231.378 182.516 C 232.21 183.154 232.666 184.166 232.593 185.211 C 231.983 194.096 227.518 233.949 226.669 246.085 C 226.608 246.951 226.91 247.804 227.502 248.439 C 228.095 249.074 228.924 249.435 229.793 249.435 L 282.208 249.435 L 282.208 249.435 Z " fill-rule="evenodd" fill="rgb(0,102,255)"/><path d=" M 369.396 311.55 C 373.78 312.345 379.892 313.253 386.794 313.703 C 396.059 326.455 425.183 344.091 445.389 348.202 C 434.634 351.811 421.523 354.718 405.55 356.601 C 367.602 341.346 358.331 311.319 362.367 310.077 L 369.396 311.55 L 369.396 311.55 Z " fill-rule="evenodd" fill="rgb(26,31,51)"/><path d=" M 149.633 310.078 C 153.609 313.117 143.372 342.526 106.45 356.601 C 90.543 354.726 77.393 351.809 66.612 348.203 C 86.784 344.111 115.94 326.459 125.206 313.704 C 138.558 312.829 148.921 310.257 149.633 310.078 L 149.633 310.078 Z " fill-rule="evenodd" fill="rgb(26,31,51)"/><path d=" M 28.785 412.305 C 39.238 427.696 84.41 444.735 172.11 369.723 C 163.445 361.165 149.973 359.833 139.805 366.536 C 95.535 395.743 52.25 407.649 28.785 412.305 L 28.785 412.305 Z " fill="rgb(26,31,51)"/><path d=" M 224.656 383.879 C 211.566 378.004 196.164 382.594 188.399 394.66 C 171.52 420.89 138.633 465.672 94.367 496.172 C 95.485 498.621 97.231 500.769 99.719 502.504 C 118.528 515.597 171.024 486.726 224.656 383.879 L 224.656 383.879 Z " fill="rgb(26,31,51)"/><path d=" M 483.213 412.305 C 472.76 427.696 427.589 444.735 339.889 369.723 C 348.554 361.165 362.03 359.833 372.194 366.536 C 416.464 395.743 459.749 407.649 483.213 412.305 Z " fill="rgb(26,31,51)"/><path d=" M 287.344 383.879 C 300.434 378.004 315.836 382.594 323.602 394.66 C 340.481 420.89 373.367 465.672 417.633 496.172 C 416.516 498.621 414.77 500.769 412.281 502.504 C 393.473 515.597 340.977 486.726 287.344 383.879 L 287.344 383.879 Z " fill="rgb(26,31,51)"/><path d=" M 256 474.503 C 231.301 474.503 224.285 445.167 222.977 410.304 C 221.711 447.812 224.192 511.999 256 511.999 C 287.809 511.999 290.289 447.812 289.023 410.304 C 287.715 445.167 280.699 474.503 256 474.503 L 256 474.503 Z " fill="rgb(26,31,51)"/></g></g></svg>